<svg width="32" height="32" viewBox="0 0 256 80" fill="none" xmlns="http://www.w3.org/2000/svg">
<path d="M68.8947 42.529V61.4545H82.8538V63.4607H65.4294V44.0442C65.4294 43.7075 65.4435 43.4409 65.4715 43.2305C65.4996 43.0201 65.6118 42.8517 65.7942 42.7254C65.9766 42.5992 66.2572 42.5431 66.664 42.5431H68.8947V42.529Z" fill="#E9E9E3"/>
<path d="M94.6804 63.7133C92.9268 63.7133 91.4397 63.587 90.2472 63.3485C89.0547 63.11 88.0867 62.6471 87.3852 61.9877C86.6697 61.3143 86.1506 60.3884 85.842 59.1959C85.5333 58.0034 85.365 56.4461 85.365 54.5381C85.365 52.3496 85.6315 50.5679 86.1787 49.1649C86.7258 47.762 87.6938 46.7379 89.0827 46.0645C90.4716 45.3911 92.4357 45.0684 94.947 45.0684C96.883 45.0684 98.4403 45.3209 99.6047 45.84C100.769 46.3591 101.625 47.1447 102.158 48.211C102.691 49.2772 102.958 50.652 102.958 52.3496V54.945H90.1349C90.1349 54.5802 90.2191 54.2716 90.4015 54.0191C90.5839 53.7665 90.9206 53.6262 91.3976 53.6262H100.082L100.04 52.3075C100.012 50.4276 99.6047 49.0667 98.8331 48.211C98.0615 47.3692 96.7147 46.9343 94.8067 46.9343C93.1933 46.9343 91.9447 47.1728 91.0328 47.6638C90.1209 48.1548 89.4896 48.9405 89.1248 50.0348C88.7601 51.129 88.5777 52.6161 88.5777 54.4961C88.5777 56.5022 88.7881 58.0174 89.195 59.0696C89.6018 60.1218 90.2893 60.8233 91.2713 61.202C92.2393 61.5808 93.5581 61.7772 95.2276 61.7772C95.8028 61.7772 96.4621 61.7492 97.2057 61.7071C97.9492 61.665 98.6928 61.6089 99.4504 61.5528C100.208 61.4967 100.881 61.4125 101.471 61.3003C102.06 61.188 102.481 61.0758 102.719 60.9635V61.5107C102.719 61.8193 102.635 62.0999 102.467 62.3805C102.298 62.6471 101.962 62.8856 101.443 63.0679C100.769 63.3345 99.8712 63.5169 98.7349 63.6151C97.5985 63.7133 96.2377 63.7554 94.6664 63.7554L94.6804 63.7133Z" fill="#E9E9E3"/>
<path d="M104.824 63.4465L111.74 54.4398L106.002 46.7096C105.792 46.3729 105.595 46.0923 105.427 45.8398C105.259 45.6013 105.076 45.4049 104.852 45.2506H108.948L114.083 52.167L119.358 45.2927H121.911C121.785 45.4189 121.673 45.5452 121.547 45.6995C121.42 45.8538 121.294 46.0362 121.14 46.2467L115.5 53.9768L122.501 63.4325H119.905C119.414 63.4325 118.993 63.3483 118.629 63.18C118.264 63.0116 117.927 62.731 117.632 62.3382L112.947 56.1513L107.349 63.4325H104.796L104.824 63.4465Z" fill="#E9E9E3"/>
<path d="M133.261 63.7133C131.872 63.7133 130.609 63.601 129.515 63.3906C128.407 63.1801 127.453 62.7593 126.653 62.1139C125.853 61.4826 125.236 60.5426 124.815 59.294C124.394 58.0454 124.184 56.418 124.184 54.3838C124.184 52.3496 124.394 50.7222 124.815 49.4736C125.236 48.225 125.853 47.285 126.653 46.6537C127.453 46.0224 128.407 45.5875 129.515 45.377C130.623 45.1666 131.872 45.0543 133.261 45.0543C134.65 45.0543 135.856 45.1666 136.964 45.377C138.073 45.5875 139.013 46.0083 139.812 46.6537C140.598 47.285 141.201 48.225 141.636 49.4736C142.057 50.7222 142.268 52.3496 142.268 54.3838C142.268 56.418 142.057 58.1016 141.636 59.3361C141.215 60.5847 140.612 61.5107 139.812 62.128C139.027 62.7452 138.073 63.1661 136.964 63.3766C135.856 63.587 134.622 63.6992 133.261 63.6992V63.7133ZM133.261 61.9456C134.467 61.9456 135.505 61.7632 136.375 61.3984C137.245 61.0337 137.904 60.3182 138.353 59.266C138.802 58.1998 139.041 56.5864 139.041 54.3978C139.041 52.2093 138.816 50.5959 138.353 49.5297C137.904 48.4635 137.245 47.762 136.375 47.3972C135.505 47.0325 134.467 46.8501 133.261 46.8501C132.054 46.8501 131.016 47.0325 130.146 47.3972C129.276 47.762 128.617 48.4775 128.14 49.5297C127.663 50.5959 127.439 52.2093 127.439 54.3978C127.439 56.5864 127.677 58.1998 128.14 59.266C128.603 60.3322 129.276 61.0337 130.146 61.3984C131.016 61.7632 132.054 61.9456 133.261 61.9456Z" fill="#E9E9E3"/>
<path d="M156.142 63.7133C153.771 63.7133 151.863 63.4748 150.418 62.9837C148.973 62.4927 147.907 61.5948 147.262 60.2761C146.616 58.9573 146.28 57.0213 146.28 54.482C146.28 51.9427 146.602 49.9365 147.262 48.5757C147.921 47.2149 148.973 46.2749 150.418 45.7839C151.877 45.2788 153.785 45.0263 156.142 45.0263C156.928 45.0263 157.672 45.0543 158.345 45.1105C159.032 45.1666 159.804 45.2788 160.688 45.4331C161.179 45.4893 161.572 45.6015 161.866 45.7698C162.175 45.9382 162.385 46.1627 162.498 46.4573C162.624 46.7519 162.68 47.1587 162.68 47.7059C162.343 47.5235 161.824 47.3692 161.109 47.2569C160.393 47.1307 159.65 47.0325 158.864 46.9623C158.078 46.8922 157.377 46.8501 156.774 46.8501C154.95 46.8501 153.519 47.0886 152.453 47.5516C151.386 48.0286 150.643 48.8002 150.208 49.8664C149.773 50.9466 149.549 52.4197 149.549 54.2996C149.549 56.1795 149.759 57.6667 150.18 58.775C150.601 59.8833 151.344 60.6689 152.411 61.1178C153.477 61.5668 154.922 61.8053 156.774 61.8053C157.615 61.8053 158.429 61.7632 159.187 61.693C159.944 61.6229 160.632 61.5107 161.263 61.3704C161.88 61.2301 162.357 61.0758 162.694 60.8934V61.8895C162.694 62.3384 162.413 62.7032 161.852 62.9557C161.291 63.2082 160.519 63.4046 159.551 63.5309C158.583 63.6571 157.447 63.7133 156.142 63.7133Z" fill="#E9E9E3"/>
<path d="M169.962 63.4469H167.955C167.562 63.4469 167.268 63.3487 167.071 63.1523C166.875 62.9559 166.777 62.5771 166.777 62.044V46.219C167.45 46.0085 168.362 45.7841 169.527 45.5315C170.691 45.279 172.136 45.1668 173.876 45.1668C175.517 45.1668 176.808 45.279 177.762 45.5035C178.716 45.7279 179.417 46.0366 179.852 46.4434C180.287 46.8363 180.582 47.3133 180.722 47.8744C180.862 48.4356 180.932 49.0669 180.932 49.7684H177.888L177.846 49.1371C177.818 48.4356 177.593 47.9305 177.159 47.6079C176.738 47.2852 176.233 47.0888 175.657 47.0186C175.082 46.9485 174.507 46.9064 173.932 46.9064C173.048 46.9064 172.276 46.9766 171.589 47.1309C170.901 47.2852 170.368 47.4816 169.976 47.7201V63.4609L169.962 63.4469Z" fill="#E9E9E3"/>
<path d="M192.296 63.7695C190.5 63.7695 189.055 63.6854 187.933 63.503C186.811 63.3206 185.955 63.012 185.366 62.5771C184.776 62.1421 184.37 61.5529 184.131 60.8234C183.907 60.0939 183.794 59.196 183.794 58.1438C183.794 56.6006 183.977 55.4081 184.342 54.5944C184.706 53.7807 185.338 53.2195 186.25 52.9109C187.161 52.6022 188.368 52.462 189.883 52.462C190.641 52.462 191.468 52.49 192.366 52.5321C193.264 52.5742 194.12 52.6163 194.962 52.6724C195.789 52.7145 196.519 52.7706 197.15 52.8267C197.768 52.8828 198.188 52.967 198.399 53.0512C198.399 51.6623 198.273 50.554 198.034 49.7263C197.796 48.9126 197.417 48.2953 196.926 47.9024C196.421 47.5096 195.803 47.2571 195.06 47.1308C194.316 47.0046 193.461 46.9485 192.493 46.9485C191.525 46.9485 190.486 46.9905 189.462 47.0607C188.452 47.1308 187.512 47.2571 186.67 47.4255C185.829 47.5938 185.169 47.8183 184.72 48.0848V47.3974C184.72 46.7661 184.903 46.3171 185.296 46.0506C185.674 45.7981 186.109 45.6157 186.586 45.5315C187.161 45.3772 188.003 45.2649 189.112 45.1667C190.22 45.0826 191.384 45.0405 192.591 45.0826C194.134 45.0826 195.467 45.1527 196.575 45.307C197.683 45.4614 198.595 45.784 199.325 46.2891C200.054 46.7941 200.601 47.5377 200.966 48.5338C201.331 49.5298 201.513 50.9047 201.513 52.6303V62.0019C201.331 62.6051 200.531 63.054 199.1 63.3487C197.669 63.6433 195.411 63.7836 192.324 63.7836L192.296 63.7695ZM192.296 62.2123C193.685 62.2123 194.807 62.1702 195.635 62.072C196.463 61.9878 197.108 61.8616 197.543 61.7072C197.978 61.5529 198.259 61.3565 198.385 61.118V54.3419C198.118 54.2577 197.599 54.1595 196.856 54.0753C196.112 53.9911 195.326 53.907 194.513 53.8228C193.699 53.7526 192.998 53.7106 192.422 53.7106C191.118 53.7106 190.066 53.7807 189.266 53.935C188.466 54.0893 187.891 54.4681 187.54 55.0714C187.19 55.6747 187.021 56.6146 187.021 57.8913C187.021 58.8874 187.147 59.7151 187.386 60.3464C187.624 60.9777 188.115 61.4547 188.859 61.7493C189.603 62.058 190.753 62.1983 192.296 62.1983V62.2123Z" fill="#E9E9E3"/>
<path d="M211.081 63.587C210.057 63.587 209.243 63.4608 208.668 63.1942C208.093 62.9417 207.672 62.4928 207.391 61.8474C207.125 61.2161 206.984 60.3463 206.984 59.252V47.0606H205.259V45.2929H206.984V42.0241C206.984 41.5751 207.026 41.2244 207.097 40.9999C207.167 40.7755 207.307 40.6352 207.489 40.565C207.672 40.5089 207.924 40.4808 208.261 40.4808H210.211C210.211 40.4808 210.211 40.6773 210.183 40.8737C210.169 41.0701 210.155 41.3507 210.155 41.7154V45.3069H214.392V47.0746H210.155V58.9013C210.155 60.0797 210.281 60.9215 210.52 61.3985C210.758 61.8895 211.305 62.128 212.161 62.128C212.498 62.128 212.849 62.0999 213.213 62.0438C213.578 61.9877 213.831 61.9176 213.985 61.8614V63.2644C213.803 63.2924 213.452 63.3485 212.933 63.4467C212.414 63.5449 211.796 63.587 211.067 63.587H211.081Z" fill="#E9E9E3"/>
<path d="M226.233 63.7133C224.479 63.7133 222.992 63.587 221.8 63.3485C220.607 63.11 219.639 62.6471 218.938 61.9877C218.222 61.3143 217.703 60.3884 217.394 59.1959C217.086 58.0034 216.917 56.4461 216.917 54.5381C216.917 52.3496 217.184 50.5679 217.731 49.1649C218.278 47.762 219.246 46.7379 220.635 46.0645C222.024 45.3911 223.988 45.0684 226.499 45.0684C228.436 45.0684 229.993 45.3209 231.157 45.84C232.322 46.3591 233.177 47.1447 233.711 48.211C234.244 49.2772 234.51 50.652 234.51 52.3496V54.945H221.687C221.687 54.5802 221.772 54.2716 221.954 54.0191C222.136 53.7665 222.473 53.6262 222.95 53.6262H231.634L231.592 52.3075C231.564 50.4276 231.157 49.0667 230.386 48.211C229.614 47.3692 228.267 46.9343 226.359 46.9343C224.746 46.9343 223.497 47.1728 222.585 47.6638C221.673 48.1548 221.042 48.9405 220.677 50.0348C220.313 51.129 220.13 52.6161 220.13 54.4961C220.13 56.5022 220.341 58.0174 220.747 59.0696C221.154 60.1218 221.842 60.8233 222.824 61.202C223.792 61.5808 225.111 61.7772 226.78 61.7772C227.355 61.7772 228.015 61.7492 228.758 61.7071C229.502 61.665 230.245 61.6089 231.003 61.5528C231.76 61.4967 232.434 61.4125 233.023 61.3003C233.612 61.188 234.033 61.0758 234.272 60.9635V61.5107C234.272 61.8193 234.188 62.0999 234.019 62.3805C233.851 62.6471 233.514 62.8856 232.995 63.0679C232.322 63.3345 231.424 63.5169 230.287 63.6151C229.151 63.7133 227.79 63.7554 226.219 63.7554L226.233 63.7133Z" fill="#E9E9E3"/>
<path d="M245.144 63.6292C244.625 63.6292 243.98 63.6151 243.208 63.5871C242.437 63.559 241.651 63.4889 240.837 63.3766C240.038 63.2644 239.308 63.1101 238.677 62.8996C238.368 62.7734 238.13 62.6611 237.947 62.5349C237.765 62.4086 237.639 62.1982 237.555 61.9036C237.484 61.5949 237.442 61.146 237.442 60.5427C238.116 60.8794 238.901 61.146 239.813 61.3424C240.725 61.5388 241.637 61.6651 242.549 61.7352C243.461 61.7913 244.219 61.8194 244.822 61.8194C245.734 61.8194 246.618 61.7773 247.487 61.7071C248.357 61.637 249.129 61.4686 249.83 61.2021C250.532 60.9496 251.079 60.5567 251.486 60.0377C251.893 59.5186 252.103 58.8452 252.103 57.9894C252.103 56.7408 251.78 55.9551 251.149 55.6044C250.518 55.2537 249.648 55.0853 248.554 55.0853H243.966C242.844 55.0853 241.791 55.0152 240.809 54.8749C239.827 54.7346 239.014 54.3558 238.396 53.7385C237.779 53.1212 237.456 52.069 237.456 50.5819C237.456 48.9686 237.849 47.7761 238.635 46.9904C239.421 46.2048 240.543 45.6857 241.974 45.4472C243.419 45.2087 245.088 45.0825 246.996 45.0825C247.698 45.0825 248.525 45.0965 249.494 45.1246C250.462 45.1526 251.387 45.2508 252.271 45.3911C252.875 45.4753 253.38 45.6016 253.801 45.7278C254.207 45.8681 254.516 46.0505 254.712 46.303C254.909 46.5415 255.007 46.8922 255.007 47.3552V48.2671C254.74 47.9585 254.277 47.72 253.646 47.5376C253.015 47.3552 252.271 47.2149 251.444 47.1307C250.616 47.0466 249.746 46.9905 248.876 46.9764C247.992 46.9624 247.179 46.9484 246.421 46.9484C245.453 46.9484 244.513 47.0045 243.601 47.1307C242.689 47.257 241.96 47.5516 241.399 48.0146C240.837 48.4916 240.557 49.2772 240.557 50.3996C240.557 51.2553 240.739 51.8726 241.104 52.2654C241.469 52.6583 241.96 52.9108 242.577 53.009C243.194 53.1212 243.91 53.1633 244.696 53.1633H249.381C250.532 53.1633 251.556 53.2615 252.454 53.4579C253.352 53.6543 254.039 54.0893 254.544 54.7767C255.049 55.4641 255.302 56.5303 255.302 57.9894C255.302 59.6028 254.867 60.8093 253.983 61.623C253.099 62.4367 251.893 62.9838 250.363 63.2363C248.834 63.4889 247.095 63.6292 245.158 63.6292H245.144Z" fill="#E9E9E3"/>
<path d="M11.2485 47.2712H16.5375V70.1389L21.0269 80.0015V47.2852H26.3159V79.6086L30.8193 69.7461V47.2712H36.1083V58.1579L46.476 35.4165H0.698486L11.2485 58.5507V47.2852V47.2712ZM8.24623 39.0781H38.7318V44.3671H8.24623V39.0781Z" fill="#E9E9E3"/>
<path d="M23.9311 29.7627C23.5663 29.5663 23.2156 29.3278 22.8789 29.0753C20.9989 27.6583 19.5259 25.5118 18.8946 23.2391C18.0809 20.2929 18.5999 17.0101 20.2133 14.4427C20.2835 14.3305 20.4237 14.3165 20.3817 14.569C20.2554 15.2985 19.7363 17.2346 20.7184 18.3569C21.5461 19.3109 23.0332 18.9181 23.4821 17.936C24.7448 15.1162 21.3918 11.5667 20.2835 9.12566C19.0349 6.36189 18.614 2.9107 20.8446 0.497665C20.9007 0.441547 21.3076 0.0627575 21.3356 0.0487289C21.4479 -0.0354481 21.518 -0.0214176 21.4339 0.146933C21.2795 0.497665 21.0831 0.876455 21.013 1.2833C20.1151 6.06728 24.5343 7.56841 26.8351 10.7531C28.0978 12.5207 28.9255 14.7233 28.6028 16.9259C28.0697 20.4753 24.6185 22.6639 23.7066 26.087C23.3699 27.3356 23.3699 28.5842 23.9591 29.7627H23.9311Z" fill="#E9E9E3"/>
</svg>
