<svg width="350" height="151" viewBox="0 0 350 151" fill="none" xmlns="http://www.w3.org/2000/svg">
<path d="M107.582 72.6904V94.2776H123.505V96.5659H103.63V74.4187C103.63 74.0346 103.646 73.7306 103.678 73.4905C103.71 73.2505 103.838 73.0585 104.046 72.9145C104.254 72.7704 104.574 72.7064 105.038 72.7064H107.582V72.6904Z" fill="#E9E9E3"/>
<path d="M136.995 96.854C134.994 96.854 133.298 96.71 131.938 96.438C130.578 96.1659 129.474 95.6379 128.673 94.8857C127.857 94.1176 127.265 93.0615 126.913 91.7013C126.561 90.3411 126.369 88.5648 126.369 86.3885C126.369 83.8921 126.673 81.8598 127.297 80.2596C127.921 78.6594 129.026 77.4912 130.61 76.7231C132.194 75.955 134.434 75.5869 137.299 75.5869C139.507 75.5869 141.283 75.875 142.612 76.467C143.94 77.0591 144.916 77.9553 145.524 79.1714C146.132 80.3876 146.436 81.9558 146.436 83.8921V86.8526H131.81C131.81 86.4365 131.906 86.0844 132.114 85.7964C132.322 85.5084 132.706 85.3483 133.25 85.3483H143.156L143.108 83.8441C143.076 81.6998 142.612 80.1476 141.731 79.1714C140.851 78.2113 139.315 77.7152 137.139 77.7152C135.298 77.7152 133.874 77.9873 132.834 78.5473C131.794 79.1074 131.074 80.0036 130.658 81.2517C130.242 82.4999 130.034 84.1962 130.034 86.3405C130.034 88.6288 130.274 90.3571 130.738 91.5573C131.202 92.7574 131.986 93.5576 133.106 93.9896C134.21 94.4217 135.715 94.6457 137.619 94.6457C138.275 94.6457 139.027 94.6137 139.875 94.5657C140.723 94.5177 141.571 94.4537 142.436 94.3897C143.3 94.3257 144.068 94.2296 144.74 94.1016C145.412 93.9736 145.892 93.8456 146.164 93.7176V94.3417C146.164 94.6937 146.068 95.0138 145.876 95.3338C145.684 95.6379 145.3 95.9099 144.708 96.1179C143.94 96.422 142.916 96.63 141.619 96.742C140.323 96.854 138.771 96.902 136.979 96.902L136.995 96.854Z" fill="#E9E9E3"/>
<path d="M148.564 96.5495L156.453 86.276L149.908 77.4587C149.668 77.0746 149.444 76.7546 149.252 76.4665C149.06 76.1945 148.852 75.9705 148.596 75.7944H153.269L159.126 83.6836L165.143 75.8424H168.055C167.911 75.9865 167.783 76.1305 167.639 76.3065C167.495 76.4825 167.351 76.6906 167.175 76.9306L160.742 85.7479L168.727 96.5335H165.767C165.207 96.5335 164.727 96.4375 164.311 96.2454C163.894 96.0534 163.51 95.7334 163.174 95.2853L157.83 88.2283L151.445 96.5335H148.532L148.564 96.5495Z" fill="#E9E9E3"/>
<path d="M181.001 96.8539C179.417 96.8539 177.977 96.7259 176.728 96.4859C175.464 96.2458 174.376 95.7658 173.464 95.0297C172.552 94.3095 171.848 93.2374 171.368 91.8132C170.888 90.389 170.647 88.5327 170.647 86.2124C170.647 83.892 170.888 82.0358 171.368 80.6115C171.848 79.1873 172.552 78.1152 173.464 77.3951C174.376 76.675 175.464 76.1789 176.728 75.9389C177.993 75.6988 179.417 75.5708 181.001 75.5708C182.585 75.5708 183.961 75.6988 185.226 75.9389C186.49 76.1789 187.562 76.659 188.474 77.3951C189.37 78.1152 190.058 79.1873 190.554 80.6115C191.034 82.0358 191.274 83.892 191.274 86.2124C191.274 88.5327 191.034 90.453 190.554 91.8612C190.074 93.2854 189.386 94.3416 188.474 95.0457C187.578 95.7498 186.49 96.2298 185.226 96.4699C183.961 96.7099 182.553 96.8379 181.001 96.8379V96.8539ZM181.001 94.8376C182.377 94.8376 183.561 94.6296 184.554 94.2135C185.546 93.7975 186.298 92.9814 186.81 91.7812C187.322 90.565 187.594 88.7247 187.594 86.2284C187.594 83.732 187.338 81.8917 186.81 80.6756C186.298 79.4594 185.546 78.6593 184.554 78.2432C183.561 77.8271 182.377 77.6191 181.001 77.6191C179.625 77.6191 178.441 77.8271 177.448 78.2432C176.456 78.6593 175.704 79.4754 175.16 80.6756C174.616 81.8917 174.36 83.732 174.36 86.2284C174.36 88.7247 174.632 90.565 175.16 91.7812C175.688 92.9974 176.456 93.7975 177.448 94.2135C178.441 94.6296 179.625 94.8376 181.001 94.8376Z" fill="#E9E9E3"/>
<path d="M207.101 96.8542C204.396 96.8542 202.22 96.5822 200.572 96.0221C198.924 95.462 197.707 94.4378 196.971 92.9336C196.235 91.4294 195.851 89.2211 195.851 86.3246C195.851 83.4282 196.219 81.1399 196.971 79.5877C197.723 78.0354 198.924 76.9633 200.572 76.4032C202.236 75.8271 204.412 75.5391 207.101 75.5391C207.997 75.5391 208.845 75.5711 209.613 75.6351C210.397 75.6991 211.277 75.8271 212.285 76.0031C212.846 76.0671 213.294 76.1952 213.63 76.3872C213.982 76.5792 214.222 76.8353 214.35 77.1713C214.494 77.5074 214.558 77.9714 214.558 78.5955C214.174 78.3875 213.582 78.2115 212.766 78.0834C211.949 77.9394 211.101 77.8274 210.205 77.7474C209.309 77.6674 208.509 77.6194 207.821 77.6194C205.741 77.6194 204.108 77.8914 202.892 78.4195C201.676 78.9636 200.828 79.8437 200.332 81.0599C199.836 82.2921 199.58 83.9723 199.58 86.1166C199.58 88.2609 199.82 89.9572 200.3 91.2214C200.78 92.4856 201.628 93.3817 202.844 93.8938C204.06 94.4058 205.709 94.6779 207.821 94.6779C208.781 94.6779 209.709 94.6299 210.573 94.5499C211.437 94.4698 212.221 94.3418 212.942 94.1818C213.646 94.0218 214.19 93.8458 214.574 93.6377V94.7739C214.574 95.286 214.254 95.702 213.614 95.9901C212.974 96.2781 212.093 96.5021 210.989 96.6462C209.885 96.7902 208.589 96.8542 207.101 96.8542Z" fill="#E9E9E3"/>
<path d="M222.863 96.5503H220.575C220.127 96.5503 219.791 96.4383 219.567 96.2142C219.342 95.9902 219.23 95.5581 219.23 94.95V76.8994C219.999 76.6594 221.039 76.4033 222.367 76.1153C223.695 75.8272 225.343 75.6992 227.328 75.6992C229.2 75.6992 230.672 75.8272 231.76 76.0833C232.848 76.3393 233.649 76.6914 234.145 77.1554C234.641 77.6035 234.977 78.1476 235.137 78.7877C235.297 79.4278 235.377 80.1479 235.377 80.948H231.904L231.856 80.2279C231.824 79.4278 231.568 78.8517 231.072 78.4836C230.592 78.1156 230.016 77.8915 229.36 77.8115C228.704 77.7315 228.048 77.6835 227.392 77.6835C226.384 77.6835 225.503 77.7635 224.719 77.9395C223.935 78.1156 223.327 78.3396 222.879 78.6116V96.5663L222.863 96.5503Z" fill="#E9E9E3"/>
<path d="M248.339 96.9179C246.291 96.9179 244.643 96.8219 243.362 96.6139C242.082 96.4059 241.106 96.0538 240.434 95.5577C239.762 95.0617 239.298 94.3896 239.026 93.5575C238.77 92.7253 238.642 91.7012 238.642 90.501C238.642 88.7407 238.85 87.3805 239.266 86.4524C239.682 85.5243 240.402 84.8842 241.442 84.5321C242.482 84.1801 243.858 84.0201 245.587 84.0201C246.451 84.0201 247.395 84.0521 248.419 84.1001C249.443 84.1481 250.419 84.1961 251.379 84.2601C252.324 84.3081 253.156 84.3721 253.876 84.4361C254.58 84.5001 255.06 84.5961 255.3 84.6922C255.3 83.1079 255.156 81.8437 254.884 80.8996C254.612 79.9715 254.18 79.2674 253.62 78.8193C253.044 78.3712 252.34 78.0832 251.491 77.9392C250.643 77.7951 249.667 77.7311 248.563 77.7311C247.459 77.7311 246.275 77.7791 245.107 77.8591C243.954 77.9392 242.882 78.0832 241.922 78.2752C240.962 78.4672 240.21 78.7233 239.698 79.0273V78.2432C239.698 77.5231 239.906 77.011 240.354 76.707C240.786 76.4189 241.282 76.2109 241.826 76.1149C242.482 75.9389 243.442 75.8109 244.707 75.6988C245.971 75.6028 247.299 75.5548 248.675 75.6028C250.435 75.6028 251.956 75.6828 253.22 75.8589C254.484 76.0349 255.524 76.4029 256.356 76.979C257.188 77.5551 257.812 78.4032 258.228 79.5394C258.645 80.6756 258.853 82.2438 258.853 84.2121V94.9017C258.645 95.5898 257.732 96.1018 256.1 96.4379C254.468 96.7739 251.892 96.934 248.371 96.934L248.339 96.9179ZM248.339 95.1417C249.923 95.1417 251.203 95.0937 252.148 94.9817C253.092 94.8856 253.828 94.7416 254.324 94.5656C254.82 94.3896 255.14 94.1655 255.284 93.8935V86.1644C254.98 86.0684 254.388 85.9563 253.54 85.8603C252.692 85.7643 251.796 85.6683 250.867 85.5723C249.939 85.4923 249.139 85.4443 248.483 85.4443C246.995 85.4443 245.795 85.5243 244.883 85.7003C243.97 85.8763 243.314 86.3084 242.914 86.9965C242.514 87.6846 242.322 88.7567 242.322 90.213C242.322 91.3491 242.466 92.2933 242.738 93.0134C243.01 93.7335 243.57 94.2776 244.418 94.6136C245.267 94.9657 246.579 95.1257 248.339 95.1257V95.1417Z" fill="#E9E9E3"/>
<path d="M269.766 96.7104C268.598 96.7104 267.67 96.5663 267.014 96.2623C266.357 95.9742 265.877 95.4622 265.557 94.7261C265.253 94.006 265.093 93.0138 265.093 91.7656V77.8596H263.125V75.8433H265.093V72.1147C265.093 71.6027 265.141 71.2026 265.221 70.9466C265.301 70.6905 265.461 70.5305 265.669 70.4505C265.877 70.3865 266.165 70.3545 266.55 70.3545H268.774C268.774 70.3545 268.774 70.5785 268.742 70.8026C268.726 71.0266 268.71 71.3466 268.71 71.7627V75.8593H273.543V77.8756H268.71V91.3656C268.71 92.7098 268.854 93.6699 269.126 94.214C269.398 94.7741 270.022 95.0461 270.998 95.0461C271.382 95.0461 271.782 95.0141 272.198 94.9501C272.614 94.8861 272.902 94.8061 273.078 94.7421V96.3423C272.87 96.3743 272.47 96.4383 271.878 96.5503C271.286 96.6623 270.582 96.7104 269.75 96.7104H269.766Z" fill="#E9E9E3"/>
<path d="M287.048 96.854C285.048 96.854 283.352 96.71 281.992 96.438C280.631 96.1659 279.527 95.6379 278.727 94.8857C277.911 94.1176 277.319 93.0615 276.967 91.7013C276.615 90.3411 276.423 88.5648 276.423 86.3885C276.423 83.8921 276.727 81.8598 277.351 80.2596C277.975 78.6594 279.079 77.4912 280.663 76.7231C282.248 75.955 284.488 75.5869 287.352 75.5869C289.561 75.5869 291.337 75.875 292.665 76.467C293.993 77.0591 294.97 77.9553 295.578 79.1714C296.186 80.3876 296.49 81.9558 296.49 83.8921V86.8526H281.864C281.864 86.4365 281.96 86.0844 282.168 85.7964C282.376 85.5084 282.76 85.3483 283.304 85.3483H293.209L293.161 83.8441C293.129 81.6998 292.665 80.1476 291.785 79.1714C290.905 78.2113 289.369 77.7152 287.192 77.7152C285.352 77.7152 283.928 77.9873 282.888 78.5473C281.848 79.1074 281.128 80.0036 280.711 81.2517C280.295 82.4999 280.087 84.1962 280.087 86.3405C280.087 88.6288 280.327 90.3571 280.792 91.5573C281.256 92.7574 282.04 93.5576 283.16 93.9896C284.264 94.4217 285.768 94.6457 287.673 94.6457C288.329 94.6457 289.081 94.6137 289.929 94.5657C290.777 94.5177 291.625 94.4537 292.489 94.3897C293.353 94.3257 294.121 94.2296 294.794 94.1016C295.466 93.9736 295.946 93.8456 296.218 93.7176V94.3417C296.218 94.6937 296.122 95.0138 295.93 95.3338C295.738 95.6379 295.354 95.9099 294.762 96.1179C293.993 96.422 292.969 96.63 291.673 96.742C290.377 96.854 288.825 96.902 287.032 96.902L287.048 96.854Z" fill="#E9E9E3"/>
<path d="M308.62 96.7581C308.028 96.7581 307.292 96.7421 306.411 96.7101C305.531 96.6781 304.635 96.5981 303.707 96.4701C302.795 96.3421 301.963 96.166 301.243 95.926C300.891 95.782 300.619 95.654 300.411 95.51C300.203 95.3659 300.059 95.1259 299.962 94.7898C299.882 94.4378 299.834 93.9257 299.834 93.2376C300.603 93.6217 301.499 93.9257 302.539 94.1497C303.579 94.3738 304.619 94.5178 305.659 94.5978C306.699 94.6618 307.564 94.6938 308.252 94.6938C309.292 94.6938 310.3 94.6458 311.292 94.5658C312.284 94.4858 313.164 94.2938 313.965 93.9897C314.765 93.7017 315.389 93.2536 315.853 92.6615C316.317 92.0694 316.557 91.3013 316.557 90.3252C316.557 88.901 316.189 88.0048 315.469 87.6048C314.749 87.2047 313.757 87.0127 312.508 87.0127H307.276C305.995 87.0127 304.795 86.9327 303.675 86.7727C302.555 86.6126 301.627 86.1806 300.923 85.4765C300.219 84.7724 299.85 83.5722 299.85 81.876C299.85 80.0357 300.299 78.6755 301.195 77.7793C302.091 76.8832 303.371 76.2911 305.003 76.0191C306.651 75.7471 308.556 75.603 310.732 75.603C311.532 75.603 312.476 75.619 313.58 75.651C314.685 75.683 315.741 75.7951 316.749 75.9551C317.437 76.0511 318.013 76.1951 318.493 76.3391C318.957 76.4992 319.309 76.7072 319.533 76.9952C319.757 77.2673 319.869 77.6673 319.869 78.1954V79.2356C319.565 78.8835 319.037 78.6115 318.317 78.4034C317.597 78.1954 316.749 78.0354 315.805 77.9394C314.861 77.8434 313.869 77.7794 312.876 77.7633C311.868 77.7473 310.94 77.7313 310.076 77.7313C308.972 77.7313 307.9 77.7953 306.86 77.9394C305.819 78.0834 304.987 78.4194 304.347 78.9475C303.707 79.4916 303.387 80.3877 303.387 81.6679C303.387 82.6441 303.595 83.3482 304.011 83.7962C304.427 84.2443 304.987 84.5323 305.691 84.6444C306.395 84.7724 307.212 84.8204 308.108 84.8204H313.452C314.765 84.8204 315.933 84.9324 316.957 85.1564C317.981 85.3805 318.765 85.8765 319.341 86.6606C319.917 87.4448 320.205 88.6609 320.205 90.3252C320.205 92.1655 319.709 93.5417 318.701 94.4698C317.693 95.3979 316.317 96.022 314.573 96.3101C312.828 96.5981 310.844 96.7581 308.636 96.7581H308.62Z" fill="#E9E9E3"/>
<path d="M41.8287 78.0996H47.8616V104.183L52.9823 115.433V78.1156H59.0152V114.985L64.152 103.735V78.0996H70.1848V90.5174L82.0106 64.5776H29.7949L41.8287 90.9655V78.1156V78.0996ZM38.4042 68.7543H73.1773V74.7871H38.4042V68.7543Z" fill="#E9E9E3"/>
<path d="M56.2951 58.1286C55.879 57.9046 55.479 57.6326 55.0949 57.3445C52.9506 55.7283 51.2704 53.2799 50.5503 50.6875C49.6221 47.327 50.2142 43.5825 52.0545 40.6541C52.1345 40.526 52.2945 40.51 52.2465 40.7981C52.1025 41.6302 51.5104 43.8385 52.6306 45.1187C53.5747 46.2069 55.2709 45.7588 55.783 44.6386C57.2232 41.4222 53.3987 37.3736 52.1345 34.5892C50.7103 31.4367 50.2302 27.5001 52.7746 24.7477C52.8386 24.6837 53.3027 24.2517 53.3347 24.2357C53.4627 24.1396 53.5427 24.1556 53.4467 24.3477C53.2706 24.7477 53.0466 25.1798 52.9666 25.6439C51.9425 31.1007 56.9832 32.8129 59.6076 36.4454C61.0478 38.4617 61.9919 40.9741 61.6239 43.4865C61.0158 47.5351 57.0792 50.0314 56.0391 53.936C55.655 55.3602 55.655 56.7844 56.3271 58.1286H56.2951Z" fill="#E9E9E3"/>
</svg>
