<svg width="2001" height="816" viewBox="0 0 2001 816" fill="none" xmlns="http://www.w3.org/2000/svg">
<path d="M586.772 375.851V508.326H684.483V522.369H562.516V386.457C562.516 384.1 562.614 382.234 562.81 380.761C563.007 379.288 563.792 378.11 565.069 377.226C566.346 376.342 568.31 375.949 571.157 375.949H586.772V375.851Z" fill="#212E44"/>
<path d="M767.267 524.135C754.992 524.135 744.582 523.251 736.235 521.581C727.888 519.912 721.112 516.671 716.202 512.056C711.193 507.342 707.56 500.861 705.399 492.513C703.239 484.166 702.061 473.266 702.061 459.91C702.061 444.591 703.926 432.119 707.756 422.299C711.586 412.478 718.362 405.31 728.084 400.596C737.806 395.882 751.555 393.624 769.133 393.624C782.685 393.624 793.585 395.391 801.736 399.025C809.887 402.658 815.877 408.157 819.609 415.621C823.341 423.084 825.207 432.708 825.207 444.591V462.758H735.449C735.449 460.205 736.039 458.044 737.315 456.277C738.592 454.509 740.949 453.527 744.288 453.527H805.075L804.78 444.296C804.584 431.137 801.736 421.611 796.335 415.621C790.934 409.729 781.506 406.684 768.151 406.684C756.858 406.684 748.118 408.354 741.734 411.791C735.351 415.228 730.932 420.727 728.379 428.387C725.826 436.047 724.549 446.456 724.549 459.616C724.549 473.659 726.022 484.264 728.87 491.63C731.718 498.995 736.53 503.905 743.404 506.556C750.18 509.208 759.411 510.583 771.097 510.583C775.123 510.583 779.739 510.386 784.944 510.092C790.148 509.797 795.353 509.404 800.656 509.012C805.959 508.619 810.673 508.029 814.797 507.244C818.922 506.458 821.868 505.673 823.537 504.887V508.717C823.537 510.877 822.948 512.841 821.769 514.805C820.591 516.671 818.234 518.341 814.601 519.617C809.887 521.483 803.602 522.76 795.648 523.447C787.693 524.135 778.168 524.429 767.169 524.429L767.267 524.135Z" fill="#212E44"/>
<path d="M838.268 522.268L886.682 459.222L846.517 405.112C845.044 402.755 843.669 400.791 842.49 399.023C841.312 397.354 840.035 395.979 838.464 394.899H867.139L903.081 443.313L940.006 395.194H957.878C956.995 396.077 956.209 396.961 955.325 398.041C954.441 399.122 953.557 400.398 952.477 401.871L913 455.981L962.003 522.169H943.835C940.398 522.169 937.452 521.58 934.899 520.402C932.346 519.223 929.989 517.259 927.927 514.51L895.127 471.202L855.944 522.169H838.071L838.268 522.268Z" fill="#212E44"/>
<path d="M1037.32 524.134C1027.6 524.134 1018.76 523.349 1011.1 521.876C1003.34 520.403 996.664 517.456 991.067 512.939C985.469 508.52 981.148 501.941 978.202 493.2C975.256 484.46 973.783 473.069 973.783 458.83C973.783 444.59 975.256 433.199 978.202 424.459C981.148 415.719 985.469 409.139 991.067 404.72C996.664 400.301 1003.34 397.257 1011.1 395.784C1018.86 394.311 1027.6 393.525 1037.32 393.525C1047.04 393.525 1055.49 394.311 1063.25 395.784C1071 397.257 1077.58 400.203 1083.18 404.72C1088.68 409.139 1092.9 415.719 1095.95 424.459C1098.89 433.199 1100.37 444.59 1100.37 458.83C1100.37 473.069 1098.89 484.853 1095.95 493.495C1093 502.235 1088.78 508.716 1083.18 513.037C1077.68 517.358 1071 520.304 1063.25 521.777C1055.49 523.25 1046.85 524.036 1037.32 524.036V524.134ZM1037.32 511.761C1045.77 511.761 1053.03 510.484 1059.12 507.931C1065.21 505.378 1069.83 500.369 1072.97 493.004C1076.11 485.541 1077.78 474.247 1077.78 458.928C1077.78 443.608 1076.21 432.315 1072.97 424.852C1069.83 417.388 1065.21 412.478 1059.12 409.925C1053.03 407.371 1045.77 406.095 1037.32 406.095C1028.87 406.095 1021.61 407.371 1015.52 409.925C1009.43 412.478 1004.82 417.486 1001.48 424.852C998.137 432.315 996.566 443.608 996.566 458.928C996.566 474.247 998.236 485.541 1001.48 493.004C1004.72 500.467 1009.43 505.378 1015.52 507.931C1021.61 510.484 1028.87 511.761 1037.32 511.761Z" fill="#212E44"/>
<path d="M1197.49 524.136C1180.9 524.136 1167.54 522.466 1157.42 519.029C1147.31 515.592 1139.85 509.307 1135.33 500.076C1130.81 490.845 1128.46 477.293 1128.46 459.519C1128.46 441.744 1130.71 427.701 1135.33 418.175C1139.94 408.65 1147.31 402.07 1157.42 398.633C1167.64 395.098 1180.99 393.33 1197.49 393.33C1202.99 393.33 1208.2 393.526 1212.91 393.919C1217.72 394.312 1223.12 395.098 1229.31 396.178C1232.75 396.571 1235.5 397.356 1237.56 398.535C1239.72 399.713 1241.19 401.284 1241.98 403.347C1242.86 405.409 1243.25 408.257 1243.25 412.087C1240.9 410.81 1237.26 409.73 1232.26 408.944C1227.25 408.06 1222.04 407.373 1216.54 406.882C1211.04 406.391 1206.13 406.096 1201.91 406.096C1189.14 406.096 1179.13 407.766 1171.66 411.007C1164.2 414.345 1159 419.747 1155.95 427.21C1152.91 434.772 1151.34 445.083 1151.34 458.242C1151.34 471.401 1152.81 481.811 1155.76 489.569C1158.7 497.327 1163.91 502.826 1171.37 505.968C1178.83 509.111 1188.95 510.78 1201.91 510.78C1207.8 510.78 1213.5 510.486 1218.8 509.995C1224.1 509.504 1228.92 508.718 1233.34 507.736C1237.66 506.754 1241 505.674 1243.35 504.397V511.37C1243.35 514.512 1241.39 517.065 1237.46 518.833C1233.53 520.601 1228.13 521.975 1221.35 522.859C1214.58 523.743 1206.62 524.136 1197.49 524.136Z" fill="#212E44"/>
<path d="M1294.22 522.271H1280.18C1277.43 522.271 1275.37 521.584 1273.99 520.209C1272.62 518.834 1271.93 516.183 1271.93 512.451V401.679C1276.65 400.206 1283.03 398.634 1291.18 396.867C1299.33 395.099 1309.45 394.313 1321.62 394.313C1333.11 394.313 1342.15 395.099 1348.82 396.67C1355.5 398.242 1360.41 400.402 1363.46 403.25C1366.5 406 1368.56 409.338 1369.55 413.267C1370.53 417.195 1371.02 421.614 1371.02 426.524H1349.71L1349.41 422.105C1349.22 417.195 1347.65 413.659 1344.6 411.401C1341.66 409.142 1338.12 407.767 1334.09 407.276C1330.07 406.785 1326.04 406.491 1322.01 406.491C1315.83 406.491 1310.43 406.982 1305.62 408.062C1300.8 409.142 1297.07 410.517 1294.32 412.186V522.37L1294.22 522.271Z" fill="#212E44"/>
<path d="M1450.56 524.528C1437.99 524.528 1427.88 523.939 1420.02 522.662C1412.17 521.386 1406.18 519.225 1402.05 516.181C1397.93 513.137 1395.08 509.012 1393.41 503.906C1391.84 498.799 1391.05 492.514 1391.05 485.149C1391.05 474.347 1392.33 466 1394.88 460.304C1397.43 454.608 1401.85 450.68 1408.24 448.52C1414.62 446.359 1423.07 445.377 1433.67 445.377C1438.97 445.377 1444.77 445.573 1451.05 445.868C1457.34 446.163 1463.33 446.457 1469.22 446.85C1475.01 447.145 1480.12 447.537 1484.54 447.93C1488.86 448.323 1491.81 448.912 1493.28 449.502C1493.28 439.779 1492.4 432.022 1490.73 426.228C1489.06 420.532 1486.41 416.211 1482.97 413.461C1479.43 410.712 1475.11 408.944 1469.91 408.06C1464.7 407.176 1458.71 406.783 1451.94 406.783C1445.16 406.783 1437.89 407.078 1430.73 407.569C1423.66 408.06 1417.08 408.944 1411.18 410.122C1405.29 411.301 1400.68 412.872 1397.53 414.738V409.926C1397.53 405.507 1398.81 402.364 1401.56 400.499C1404.21 398.731 1407.26 397.454 1410.59 396.865C1414.62 395.785 1420.51 394.999 1428.27 394.312C1436.03 393.723 1444.18 393.428 1452.62 393.723C1463.43 393.723 1472.76 394.214 1480.51 395.294C1488.27 396.374 1494.66 398.633 1499.76 402.168C1504.87 405.703 1508.7 410.908 1511.25 417.88C1513.8 424.853 1515.08 434.477 1515.08 446.555V512.155C1513.8 516.377 1508.21 519.52 1498.19 521.582C1488.17 523.644 1472.36 524.626 1450.76 524.626L1450.56 524.528ZM1450.56 513.628C1460.28 513.628 1468.14 513.333 1473.93 512.646C1479.73 512.057 1484.25 511.173 1487.29 510.093C1490.33 509.012 1492.3 507.637 1493.18 505.968V458.536C1491.32 457.947 1487.68 457.26 1482.48 456.67C1477.27 456.081 1471.77 455.492 1466.08 454.903C1460.38 454.412 1455.47 454.117 1451.45 454.117C1442.31 454.117 1434.95 454.608 1429.35 455.688C1423.75 456.769 1419.73 459.42 1417.27 463.643C1414.82 467.865 1413.64 474.445 1413.64 483.381C1413.64 490.354 1414.52 496.148 1416.19 500.567C1417.86 504.986 1421.3 508.325 1426.5 510.387C1431.71 512.548 1439.76 513.53 1450.56 513.53V513.628Z" fill="#212E44"/>
<path d="M1582.05 523.252C1574.88 523.252 1569.19 522.368 1565.16 520.503C1561.13 518.735 1558.19 515.592 1556.22 511.075C1554.36 506.656 1553.37 500.567 1553.37 492.908V407.57H1541.3V395.196H1553.37V372.315C1553.37 369.172 1553.67 366.717 1554.16 365.146C1554.65 363.575 1555.63 362.593 1556.91 362.102C1558.19 361.709 1559.95 361.513 1562.31 361.513H1575.96C1575.96 361.513 1575.96 362.888 1575.77 364.262C1575.67 365.637 1575.57 367.601 1575.57 370.155V395.294H1605.23V407.668H1575.57V490.453C1575.57 498.702 1576.45 504.594 1578.12 507.933C1579.79 511.37 1583.62 513.039 1589.61 513.039C1591.97 513.039 1594.42 512.843 1596.98 512.45C1599.53 512.057 1601.3 511.566 1602.38 511.173V520.994C1601.1 521.19 1598.65 521.583 1595.01 522.27C1591.38 522.958 1587.06 523.252 1581.95 523.252H1582.05Z" fill="#212E44"/>
<path d="M1688.11 524.135C1675.84 524.135 1665.43 523.251 1657.08 521.581C1648.74 519.912 1641.96 516.671 1637.05 512.056C1632.04 507.342 1628.41 500.861 1626.25 492.513C1624.09 484.166 1622.91 473.266 1622.91 459.91C1622.91 444.591 1624.77 432.119 1628.6 422.299C1632.43 412.478 1639.21 405.31 1648.93 400.596C1658.65 395.882 1672.4 393.624 1689.98 393.624C1703.53 393.624 1714.43 395.391 1722.58 399.025C1730.73 402.658 1736.72 408.157 1740.46 415.621C1744.19 423.084 1746.05 432.708 1746.05 444.591V462.758H1656.3C1656.3 460.205 1656.89 458.044 1658.16 456.277C1659.44 454.509 1661.8 453.527 1665.14 453.527H1725.92L1725.63 444.296C1725.43 431.137 1722.58 421.611 1717.18 415.621C1711.78 409.729 1702.35 406.684 1689 406.684C1677.71 406.684 1668.97 408.354 1662.58 411.791C1656.2 415.228 1651.78 420.727 1649.23 428.387C1646.67 436.047 1645.4 446.456 1645.4 459.616C1645.4 473.659 1646.87 484.264 1649.72 491.63C1652.57 498.995 1657.38 503.905 1664.25 506.556C1671.03 509.208 1680.26 510.583 1691.94 510.583C1695.97 510.583 1700.59 510.386 1705.79 510.092C1711 509.797 1716.2 509.404 1721.5 509.012C1726.81 508.619 1731.52 508.029 1735.64 507.244C1739.77 506.458 1742.72 505.673 1744.38 504.887V508.717C1744.38 510.877 1743.8 512.841 1742.62 514.805C1741.44 516.671 1739.08 518.341 1735.45 519.617C1730.73 521.483 1724.45 522.76 1716.5 523.447C1708.54 524.135 1699.02 524.429 1688.02 524.429L1688.11 524.135Z" fill="#212E44"/>
<path d="M1820.49 523.546C1816.86 523.546 1812.34 523.448 1806.94 523.251C1801.54 523.055 1796.04 522.564 1790.34 521.778C1784.74 520.993 1779.64 519.912 1775.22 518.439C1773.06 517.556 1771.39 516.77 1770.11 515.886C1768.83 515.002 1767.95 513.529 1767.36 511.467C1766.87 509.307 1766.58 506.164 1766.58 501.941C1771.29 504.298 1776.79 506.164 1783.17 507.539C1789.56 508.914 1795.94 509.798 1802.32 510.289C1808.71 510.681 1814.01 510.878 1818.23 510.878C1824.61 510.878 1830.8 510.583 1836.89 510.092C1842.98 509.601 1848.38 508.423 1853.29 506.557C1858.2 504.789 1862.03 502.04 1864.88 498.406C1867.72 494.773 1869.2 490.059 1869.2 484.068C1869.2 475.328 1866.94 469.829 1862.52 467.374C1858.1 464.919 1852.01 463.741 1844.35 463.741H1812.24C1804.38 463.741 1797.02 463.25 1790.14 462.268C1783.27 461.285 1777.57 458.634 1773.25 454.313C1768.93 449.992 1766.67 442.627 1766.67 432.218C1766.67 420.924 1769.42 412.577 1774.92 407.078C1780.42 401.578 1788.28 397.945 1798.3 396.275C1808.41 394.606 1820.1 393.722 1833.45 393.722C1838.36 393.722 1844.16 393.82 1850.93 394.017C1857.71 394.213 1864.19 394.901 1870.38 395.883C1874.6 396.472 1878.13 397.356 1881.08 398.239C1883.93 399.221 1886.09 400.498 1887.46 402.266C1888.84 403.935 1889.53 406.39 1889.53 409.631V416.014C1887.66 413.854 1884.42 412.184 1880 410.908C1875.58 409.631 1870.38 408.649 1864.58 408.06C1858.79 407.471 1852.7 407.078 1846.61 406.98C1840.42 406.881 1834.73 406.783 1829.43 406.783C1822.65 406.783 1816.07 407.176 1809.69 408.06C1803.3 408.944 1798.2 411.006 1794.27 414.246C1790.34 417.585 1788.38 423.085 1788.38 430.941C1788.38 436.931 1789.65 441.252 1792.21 444.002C1794.76 446.752 1798.2 448.519 1802.52 449.207C1806.84 449.992 1811.85 450.287 1817.35 450.287H1850.15C1858.2 450.287 1865.37 450.974 1871.65 452.349C1877.94 453.724 1882.75 456.768 1886.29 461.58C1889.82 466.392 1891.59 473.855 1891.59 484.068C1891.59 495.362 1888.54 503.807 1882.36 509.503C1876.17 515.199 1867.72 519.029 1857.02 520.796C1846.32 522.564 1834.14 523.546 1820.59 523.546H1820.49Z" fill="#212E44"/>
<path d="M183.26 409.045H220.283V569.115L251.708 638.152V409.143H288.73V635.402L320.253 566.366V409.045H357.275V485.25L429.847 326.064H109.412L183.26 488V409.143V409.045ZM162.245 351.695H375.639V388.717H162.245V351.695Z" fill="#212E44"/>
<path d="M272.036 286.489C269.483 285.114 267.028 283.445 264.671 281.677C251.512 271.759 241.201 256.734 236.782 240.825C231.086 220.202 234.719 197.223 246.013 179.252C246.504 178.466 247.486 178.368 247.191 180.136C246.307 185.242 242.674 198.794 249.548 206.65C255.342 213.328 265.751 210.578 268.894 203.704C277.732 183.966 254.262 159.12 246.504 142.033C237.764 122.687 234.818 98.5293 250.432 81.6385C250.825 81.2457 253.672 78.5942 253.869 78.496C254.654 77.9068 255.145 78.005 254.556 79.1834C253.476 81.6385 252.101 84.29 251.61 87.1378C245.325 120.625 276.259 131.133 292.364 153.425C301.202 165.798 306.996 181.216 304.738 196.634C301.006 221.479 276.848 236.798 270.465 260.76C268.108 269.5 268.108 278.24 272.233 286.489H272.036Z" fill="#212E44"/>
</svg>
