<svg width="400" height="300" viewBox="0 0 400 300" xmlns="http://www.w3.org/2000/svg">
  <defs>
    <linearGradient id="blogGradient" x1="0%" y1="0%" x2="100%" y2="100%">
      <stop offset="0%" style="stop-color:#27ae60;stop-opacity:0.1" />
      <stop offset="100%" style="stop-color:#2c3e50;stop-opacity:0.2" />
    </linearGradient>
  </defs>
  
  <!-- Background -->
  <rect width="400" height="300" fill="url(#blogGradient)" rx="20"/>
  
  <!-- Stack of documents/articles -->
  <g transform="translate(100, 80)">
    <!-- Back document -->
    <rect x="0" y="10" width="120" height="160" fill="#34495e" opacity="0.6" rx="8"/>
    <rect x="10" y="20" width="100" height="4" fill="#ecf0f1" opacity="0.8" rx="2"/>
    <rect x="10" y="30" width="80" height="4" fill="#ecf0f1" opacity="0.6" rx="2"/>
    <rect x="10" y="40" width="90" height="4" fill="#ecf0f1" opacity="0.6" rx="2"/>
    
    <!-- Middle document -->
    <rect x="5" y="5" width="120" height="160" fill="#3498db" opacity="0.7" rx="8"/>
    <rect x="15" y="15" width="100" height="4" fill="#ecf0f1" opacity="0.9" rx="2"/>
    <rect x="15" y="25" width="80" height="4" fill="#ecf0f1" opacity="0.7" rx="2"/>
    <rect x="15" y="35" width="90" height="4" fill="#ecf0f1" opacity="0.7" rx="2"/>
    
    <!-- Front document -->
    <rect x="10" y="0" width="120" height="160" fill="#27ae60" opacity="0.8" rx="8"/>
    <rect x="20" y="10" width="100" height="4" fill="#ecf0f1" rx="2"/>
    <rect x="20" y="20" width="80" height="4" fill="#ecf0f1" opacity="0.8" rx="2"/>
    <rect x="20" y="30" width="90" height="4" fill="#ecf0f1" opacity="0.8" rx="2"/>
  </g>
  
  <!-- Lightbulb for insights -->
  <g transform="translate(280, 100)">
    <circle cx="0" cy="0" r="30" fill="#f39c12" opacity="0.8"/>
    <path d="M-15,-20 Q-15,-30 0,-30 Q15,-30 15,-20 L10,-10 Q10,-5 0,-5 Q-10,-5 -10,-10 Z" fill="#f39c12" opacity="0.8"/>
    <line x1="-5" y1="-15" x2="5" y2="-15" stroke="#ecf0f1" stroke-width="2" opacity="0.9"/>
    <line x1="-3" y1="-10" x2="3" y2="-10" stroke="#ecf0f1" stroke-width="2" opacity="0.9"/>
  </g>
  
  <!-- Graph/chart -->
  <g transform="translate(80, 220)">
    <rect x="0" y="0" width="200" height="60" fill="none" stroke="#34495e" stroke-width="2" opacity="0.6"/>
    <polyline points="0,50 40,30 80,40 120,20 160,35 200,10" fill="none" stroke="#e74c3c" stroke-width="3" opacity="0.8"/>
    <circle cx="40" cy="30" r="3" fill="#e74c3c" opacity="0.8"/>
    <circle cx="80" cy="40" r="3" fill="#e74c3c" opacity="0.8"/>
    <circle cx="120" cy="20" r="3" fill="#e74c3c" opacity="0.8"/>
    <circle cx="160" cy="35" r="3" fill="#e74c3c" opacity="0.8"/>
    <circle cx="200" cy="10" r="3" fill="#e74c3c" opacity="0.8"/>
  </g>
  
  <!-- Reading glasses -->
  <g transform="translate(320, 200)">
    <circle cx="-15" cy="0" r="12" fill="none" stroke="#34495e" stroke-width="2" opacity="0.7"/>
    <circle cx="15" cy="0" r="12" fill="none" stroke="#34495e" stroke-width="2" opacity="0.7"/>
    <line x1="-3" y1="0" x2="3" y2="0" stroke="#34495e" stroke-width="2" opacity="0.7"/>
    <path d="M-27,0 Q-35,0 -35,8" fill="none" stroke="#34495e" stroke-width="2" opacity="0.7"/>
    <path d="M27,0 Q35,0 35,8" fill="none" stroke="#34495e" stroke-width="2" opacity="0.7"/>
  </g>
</svg>
