<svg width="300" height="200" viewBox="0 0 300 200" xmlns="http://www.w3.org/2000/svg">
  <defs>
    <linearGradient id="cultureGradient" x1="0%" y1="0%" x2="100%" y2="100%">
      <stop offset="0%" style="stop-color:#e74c3c;stop-opacity:0.1" />
      <stop offset="100%" style="stop-color:#2c3e50;stop-opacity:0.2" />
    </linearGradient>
  </defs>
  
  <!-- Background -->
  <rect width="300" height="200" fill="url(#cultureGradient)" rx="15"/>
  
  <!-- Team collaboration -->
  <g transform="translate(150, 80)">
    <!-- Central team hub -->
    <circle cx="0" cy="0" r="25" fill="#e74c3c" opacity="0.8"/>
    <circle cx="0" cy="0" r="20" fill="#ecf0f1" opacity="0.9"/>
    
    <!-- Team members around the hub -->
    <g transform="translate(-50, -30)">
      <circle cx="0" cy="0" r="15" fill="#3498db" opacity="0.7"/>
      <circle cx="0" cy="-3" r="9" fill="#ecf0f1" opacity="0.9"/>
      <rect x="-4" y="3" width="8" height="12" fill="#ecf0f1" opacity="0.9" rx="4"/>
    </g>
    
    <g transform="translate(50, -30)">
      <circle cx="0" cy="0" r="15" fill="#f39c12" opacity="0.7"/>
      <circle cx="0" cy="-3" r="9" fill="#ecf0f1" opacity="0.9"/>
      <rect x="-4" y="3" width="8" height="12" fill="#ecf0f1" opacity="0.9" rx="4"/>
    </g>
    
    <g transform="translate(-50, 30)">
      <circle cx="0" cy="0" r="15" fill="#27ae60" opacity="0.7"/>
      <circle cx="0" cy="-3" r="9" fill="#ecf0f1" opacity="0.9"/>
      <rect x="-4" y="3" width="8" height="12" fill="#ecf0f1" opacity="0.9" rx="4"/>
    </g>
    
    <g transform="translate(50, 30)">
      <circle cx="0" cy="0" r="15" fill="#9b59b6" opacity="0.7"/>
      <circle cx="0" cy="-3" r="9" fill="#ecf0f1" opacity="0.9"/>
      <rect x="-4" y="3" width="8" height="12" fill="#ecf0f1" opacity="0.9" rx="4"/>
    </g>
    
    <!-- Connection lines -->
    <line x1="-25" y1="-15" x2="-15" y2="-15" stroke="#e74c3c" stroke-width="2" opacity="0.6"/>
    <line x1="25" y1="-15" x2="15" y2="-15" stroke="#e74c3c" stroke-width="2" opacity="0.6"/>
    <line x1="-25" y1="15" x2="-15" y2="15" stroke="#e74c3c" stroke-width="2" opacity="0.6"/>
    <line x1="25" y1="15" x2="15" y2="15" stroke="#e74c3c" stroke-width="2" opacity="0.6"/>
  </g>
  
  <!-- Culture values icons -->
  <g transform="translate(30, 30)">
    <!-- Innovation -->
    <circle cx="0" cy="0" r="12" fill="#f39c12" opacity="0.7"/>
    <path d="M-6,-6 L6,6 M-6,6 L6,-6" stroke="#ecf0f1" stroke-width="1" opacity="0.9"/>
    <text x="0" y="25" font-family="Arial" font-size="8" fill="#34495e" opacity="0.8" text-anchor="middle">Innovation</text>
  </g>
  
  <g transform="translate(30, 70)">
    <!-- Collaboration -->
    <circle cx="0" cy="0" r="12" fill="#3498db" opacity="0.7"/>
    <circle cx="-4" cy="0" r="3" fill="#ecf0f1" opacity="0.9"/>
    <circle cx="4" cy="0" r="3" fill="#ecf0f1" opacity="0.9"/>
    <line x1="-1" y1="0" x2="1" y2="0" stroke="#ecf0f1" stroke-width="1" opacity="0.9"/>
    <text x="0" y="25" font-family="Arial" font-size="8" fill="#34495e" opacity="0.8" text-anchor="middle">Collaboration</text>
  </g>
  
  <g transform="translate(30, 110)">
    <!-- Learning -->
    <circle cx="0" cy="0" r="12" fill="#27ae60" opacity="0.7"/>
    <rect x="-4" y="-6" width="8" height="12" fill="#ecf0f1" opacity="0.9" rx="1"/>
    <line x1="-2" y1="-2" x2="2" y2="-2" stroke="#34495e" stroke-width="1" opacity="0.8"/>
    <line x1="-2" y1="0" x2="2" y2="0" stroke="#34495e" stroke-width="1" opacity="0.8"/>
    <line x1="-2" y1="2" x2="2" y2="2" stroke="#34495e" stroke-width="1" opacity="0.8"/>
    <text x="0" y="25" font-family="Arial" font-size="8" fill="#34495e" opacity="0.8" text-anchor="middle">Learning</text>
  </g>
  
  <g transform="translate(30, 150)">
    <!-- Excellence -->
    <circle cx="0" cy="0" r="12" fill="#9b59b6" opacity="0.7"/>
    <polygon points="0,-6 2,-2 6,-2 3,1 4,5 0,3 -4,5 -3,1 -6,-2 -2,-2" fill="#f39c12" opacity="0.9"/>
    <text x="0" y="25" font-family="Arial" font-size="8" fill="#34495e" opacity="0.8" text-anchor="middle">Excellence</text>
  </g>
  
  <!-- Work-life balance -->
  <g transform="translate(250, 40)">
    <rect x="0" y="0" width="40" height="30" fill="#16a085" opacity="0.7" rx="5"/>
    <text x="20" y="12" font-family="Arial" font-size="8" fill="#ecf0f1" opacity="0.9" text-anchor="middle">Work</text>
    <text x="20" y="22" font-family="Arial" font-size="8" fill="#ecf0f1" opacity="0.9" text-anchor="middle">Life</text>
  </g>
  
  <!-- Global impact -->
  <g transform="translate(250, 80)">
    <circle cx="0" cy="0" r="15" fill="#e67e22" opacity="0.7"/>
    <circle cx="0" cy="0" r="10" fill="none" stroke="#ecf0f1" stroke-width="1" opacity="0.9"/>
    <line x1="-10" y1="0" x2="10" y2="0" stroke="#ecf0f1" stroke-width="1" opacity="0.9"/>
    <line x1="0" y1="-10" x2="0" y2="10" stroke="#ecf0f1" stroke-width="1" opacity="0.9"/>
    <text x="0" y="25" font-family="Arial" font-size="8" fill="#34495e" opacity="0.8" text-anchor="middle">Global</text>
  </g>
  
  <!-- Positive indicators -->
  <g transform="translate(250, 130)">
    <circle cx="0" cy="0" r="12" fill="#27ae60" opacity="0.7"/>
    <path d="M-4,-2 L0,2 L4,-2" stroke="#ecf0f1" stroke-width="2" fill="none" opacity="0.9"/>
    <text x="0" y="25" font-family="Arial" font-size="8" fill="#34495e" opacity="0.8" text-anchor="middle">Growth</text>
  </g>
</svg>
