<svg width="400" height="300" viewBox="0 0 400 300" xmlns="http://www.w3.org/2000/svg">
  <defs>
    <linearGradient id="logoGradient" x1="0%" y1="0%" x2="100%" y2="100%">
      <stop offset="0%" style="stop-color:#ffffff;stop-opacity:1" />
      <stop offset="100%" style="stop-color:#ffffff;stop-opacity:0.9" />
    </linearGradient>
  </defs>
  
  <!-- Background circle/container -->
  <circle cx="200" cy="150" r="120" fill="rgba(26, 35, 50, 0.05)" stroke="rgba(52, 152, 219, 0.2)" stroke-width="1"/>
  
  <!-- Open Book -->
  <g fill="url(#logoGradient)" stroke="#ffffff" stroke-width="3">
    <!-- Book spine -->
    <line x1="200" y1="80" x2="200" y2="220" stroke="#ffffff" stroke-width="4"/>
    
    <!-- Left page -->
    <path d="M 200 80 Q 160 90 160 150 Q 160 210 200 220" fill="none" stroke="#ffffff" stroke-width="3"/>
    <path d="M 200 80 Q 160 90 160 150 Q 160 210 200 220" fill="rgba(255, 255, 255, 0.15)"/>
    
    <!-- Right page -->
    <path d="M 200 80 Q 240 90 240 150 Q 240 210 200 220" fill="none" stroke="#ffffff" stroke-width="3"/>
    <path d="M 200 80 Q 240 90 240 150 Q 240 210 200 220" fill="rgba(255, 255, 255, 0.15)"/>
    
    <!-- Page lines -->
    <line x1="180" y1="100" x2="180" y2="200" stroke="#ffffff" stroke-width="2" opacity="0.8"/>
    <line x1="220" y1="100" x2="220" y2="200" stroke="#ffffff" stroke-width="2" opacity="0.8"/>
  </g>
  
  <!-- Balance Scale -->
  <g fill="none" stroke="#ffffff" stroke-width="3">
    <!-- Horizontal beam -->
    <line x1="140" y1="120" x2="260" y2="120" stroke="#ffffff" stroke-width="4"/>
    
    <!-- Central support -->
    <line x1="200" y1="120" x2="200" y2="140" stroke="#ffffff" stroke-width="3"/>
    
    <!-- Left pan -->
    <path d="M 140 120 L 120 140 L 160 140 Z" fill="rgba(255, 255, 255, 0.25)"/>
    <path d="M 140 120 L 120 140 L 160 140 Z" fill="none" stroke="#ffffff" stroke-width="3"/>
    
    <!-- Right pan -->
    <path d="M 260 120 L 240 140 L 280 140 Z" fill="rgba(255, 255, 255, 0.25)"/>
    <path d="M 260 120 L 240 140 L 280 140 Z" fill="none" stroke="#ffffff" stroke-width="3"/>
    
    <!-- Support chains -->
    <line x1="140" y1="120" x2="140" y2="140" stroke="#ffffff" stroke-width="2" opacity="0.9"/>
    <line x1="260" y1="120" x2="260" y2="140" stroke="#ffffff" stroke-width="2" opacity="0.9"/>
  </g>
  
  <!-- Decorative elements -->
  <circle cx="200" cy="150" r="4" fill="#ffffff" opacity="0.9"/>
  <circle cx="180" cy="130" r="3" fill="#ffffff" opacity="0.8"/>
  <circle cx="220" cy="130" r="3" fill="#ffffff" opacity="0.8"/>
</svg>
