<svg width="300" height="200" viewBox="0 0 300 200" xmlns="http://www.w3.org/2000/svg">
  <defs>
    <linearGradient id="resourcesGradient" x1="0%" y1="0%" x2="100%" y2="100%">
      <stop offset="0%" style="stop-color:#16a085;stop-opacity:0.1" />
      <stop offset="100%" style="stop-color:#2c3e50;stop-opacity:0.2" />
    </linearGradient>
  </defs>
  
  <!-- Background -->
  <rect width="300" height="200" fill="url(#resourcesGradient)" rx="15"/>
  
  <!-- PDF document -->
  <g transform="translate(50, 40)">
    <rect x="0" y="0" width="60" height="80" fill="#e74c3c" opacity="0.8" rx="5"/>
    <rect x="5" y="5" width="50" height="3" fill="#ecf0f1" opacity="0.9" rx="1"/>
    <rect x="5" y="12" width="40" height="3" fill="#ecf0f1" opacity="0.7" rx="1"/>
    <rect x="5" y="19" width="45" height="3" fill="#ecf0f1" opacity="0.7" rx="1"/>
    <rect x="5" y="26" width="35" height="3" fill="#ecf0f1" opacity="0.5" rx="1"/>
    <rect x="5" y="33" width="40" height="3" fill="#ecf0f1" opacity="0.5" rx="1"/>
    <rect x="5" y="40" width="30" height="3" fill="#ecf0f1" opacity="0.5" rx="1"/>
    <rect x="5" y="47" width="35" height="3" fill="#ecf0f1" opacity="0.5" rx="1"/>
    <rect x="5" y="54" width="25" height="3" fill="#ecf0f1" opacity="0.5" rx="1"/>
    <rect x="5" y="61" width="30" height="3" fill="#ecf0f1" opacity="0.5" rx="1"/>
    <rect x="5" y="68" width="20" height="3" fill="#ecf0f1" opacity="0.5" rx="1"/>
    <rect x="5" y="75" width="25" height="3" fill="#ecf0f1" opacity="0.5" rx="1"/>
    
    <!-- PDF icon -->
    <rect x="15" y="15" width="30" height="20" fill="#e74c3c" opacity="0.9" rx="2"/>
    <text x="30" y="28" font-family="Arial" font-size="12" fill="#ecf0f1" opacity="0.9" text-anchor="middle">PDF</text>
  </g>
  
  <!-- Calculator tool -->
  <g transform="translate(140, 40)">
    <rect x="0" y="0" width="60" height="80" fill="#3498db" opacity="0.8" rx="5"/>
    <rect x="5" y="5" width="50" height="15" fill="#ecf0f1" opacity="0.9" rx="2"/>
    <text x="30" y="15" font-family="Arial" font-size="10" fill="#34495e" opacity="0.8" text-anchor="middle">Calculator</text>
    
    <!-- Calculator buttons -->
    <rect x="8" y="25" width="12" height="12" fill="#34495e" opacity="0.7" rx="2"/>
    <rect x="22" y="25" width="12" height="12" fill="#34495e" opacity="0.7" rx="2"/>
    <rect x="36" y="25" width="12" height="12" fill="#34495e" opacity="0.7" rx="2"/>
    <rect x="8" y="40" width="12" height="12" fill="#34495e" opacity="0.7" rx="2"/>
    <rect x="22" y="40" width="12" height="12" fill="#34495e" opacity="0.7" rx="2"/>
    <rect x="36" y="40" width="12" height="12" fill="#34495e" opacity="0.7" rx="2"/>
    <rect x="8" y="55" width="12" height="12" fill="#34495e" opacity="0.7" rx="2"/>
    <rect x="22" y="55" width="12" height="12" fill="#34495e" opacity="0.7" rx="2"/>
    <rect x="36" y="55" width="12" height="12" fill="#34495e" opacity="0.7" rx="2"/>
    <rect x="8" y="70" width="12" height="12" fill="#34495e" opacity="0.7" rx="2"/>
    <rect x="22" y="70" width="12" height="12" fill="#34495e" opacity="0.7" rx="2"/>
    <rect x="36" y="70" width="12" height="12" fill="#34495e" opacity="0.7" rx="2"/>
  </g>
  
  <!-- Checklist -->
  <g transform="translate(230, 40)">
    <rect x="0" y="0" width="60" height="80" fill="#f39c12" opacity="0.8" rx="5"/>
    <rect x="5" y="5" width="50" height="4" fill="#ecf0f1" opacity="0.9" rx="2"/>
    <circle cx="10" cy="12" r="3" fill="#27ae60" opacity="0.8"/>
    <path d="M8,12 L10,14 L13,11" stroke="#ecf0f1" stroke-width="1" fill="none" opacity="0.9"/>
    <rect x="15" y="10" width="35" height="3" fill="#ecf0f1" opacity="0.7" rx="1"/>
    
    <rect x="5" y="20" width="50" height="4" fill="#ecf0f1" opacity="0.9" rx="2"/>
    <circle cx="10" cy="27" r="3" fill="#27ae60" opacity="0.8"/>
    <path d="M8,27 L10,29 L13,26" stroke="#ecf0f1" stroke-width="1" fill="none" opacity="0.9"/>
    <rect x="15" y="25" width="35" height="3" fill="#ecf0f1" opacity="0.7" rx="1"/>
    
    <rect x="5" y="35" width="50" height="4" fill="#ecf0f1" opacity="0.9" rx="2"/>
    <circle cx="10" cy="42" r="3" fill="#27ae60" opacity="0.8"/>
    <path d="M8,42 L10,44 L13,41" stroke="#ecf0f1" stroke-width="1" fill="none" opacity="0.9"/>
    <rect x="15" y="40" width="35" height="3" fill="#ecf0f1" opacity="0.7" rx="1"/>
    
    <rect x="5" y="50" width="50" height="4" fill="#ecf0f1" opacity="0.9" rx="2"/>
    <circle cx="10" cy="57" r="3" fill="#27ae60" opacity="0.8"/>
    <path d="M8,57 L10,59 L13,56" stroke="#ecf0f1" stroke-width="1" fill="none" opacity="0.9"/>
    <rect x="15" y="55" width="35" height="3" fill="#ecf0f1" opacity="0.7" rx="1"/>
    
    <rect x="5" y="65" width="50" height="4" fill="#ecf0f1" opacity="0.9" rx="2"/>
    <circle cx="10" cy="72" r="3" fill="#27ae60" opacity="0.8"/>
    <path d="M8,72 L10,74 L13,71" stroke="#ecf0f1" stroke-width="1" fill="none" opacity="0.9"/>
    <rect x="15" y="70" width="35" height="3" fill="#ecf0f1" opacity="0.7" rx="1"/>
  </g>
  
  <!-- Download arrows -->
  <g transform="translate(80, 140)">
    <path d="M0,0 L10,0 L5,5 Z" fill="#16a085" opacity="0.8"/>
    <text x="15" y="5" font-family="Arial" font-size="10" fill="#34495e" opacity="0.7">Download</text>
  </g>
  
  <g transform="translate(170, 140)">
    <path d="M0,0 L10,0 L5,5 Z" fill="#16a085" opacity="0.8"/>
    <text x="15" y="5" font-family="Arial" font-size="10" fill="#34495e" opacity="0.7">Access</text>
  </g>
  
  <g transform="translate(260, 140)">
    <path d="M0,0 L10,0 L5,5 Z" fill="#16a085" opacity="0.8"/>
    <text x="15" y="5" font-family="Arial" font-size="10" fill="#34495e" opacity="0.7">Download</text>
  </g>
  
  <!-- File icons -->
  <g transform="translate(30, 170)">
    <rect x="0" y="0" width="20" height="25" fill="#e74c3c" opacity="0.7" rx="2"/>
    <text x="10" y="15" font-family="Arial" font-size="8" fill="#ecf0f1" opacity="0.9" text-anchor="middle">PDF</text>
  </g>
  
  <g transform="translate(60, 170)">
    <rect x="0" y="0" width="20" height="25" fill="#3498db" opacity="0.7" rx="2"/>
    <text x="10" y="15" font-family="Arial" font-size="8" fill="#ecf0f1" opacity="0.9" text-anchor="middle">TOOL</text>
  </g>
  
  <g transform="translate(90, 170)">
    <rect x="0" y="0" width="20" height="25" fill="#f39c12" opacity="0.7" rx="2"/>
    <text x="10" y="15" font-family="Arial" font-size="8" fill="#ecf0f1" opacity="0.9" text-anchor="middle">DOC</text>
  </g>
</svg>
