<svg width="400" height="300" viewBox="0 0 400 300" xmlns="http://www.w3.org/2000/svg">
  <defs>
    <linearGradient id="teamGradient" x1="0%" y1="0%" x2="100%" y2="100%">
      <stop offset="0%" style="stop-color:#9b59b6;stop-opacity:0.1" />
      <stop offset="100%" style="stop-color:#2c3e50;stop-opacity:0.2" />
    </linearGradient>
  </defs>
  
  <!-- Background -->
  <rect width="400" height="300" fill="url(#teamGradient)" rx="20"/>
  
  <!-- Team members in a circle -->
  <g transform="translate(200, 150)">
    <!-- Center connection hub -->
    <circle cx="0" cy="0" r="20" fill="#9b59b6" opacity="0.8"/>
    <circle cx="0" cy="0" r="15" fill="#ecf0f1" opacity="0.9"/>
    
    <!-- Team member 1 (top) -->
    <g transform="translate(0, -80)">
      <circle cx="0" cy="0" r="25" fill="#3498db" opacity="0.8"/>
      <circle cx="0" cy="-5" r="15" fill="#ecf0f1" opacity="0.9"/>
      <rect x="-8" y="5" width="16" height="20" fill="#ecf0f1" opacity="0.9" rx="8"/>
      <line x1="0" y1="25" x2="0" y2="55" stroke="#9b59b6" stroke-width="2" opacity="0.6"/>
    </g>
    
    <!-- Team member 2 (top-right) -->
    <g transform="translate(60, -40)">
      <circle cx="0" cy="0" r="25" fill="#e74c3c" opacity="0.8"/>
      <circle cx="0" cy="-5" r="15" fill="#ecf0f1" opacity="0.9"/>
      <rect x="-8" y="5" width="16" height="20" fill="#ecf0f1" opacity="0.9" rx="8"/>
      <line x1="0" y1="25" x2="0" y2="55" stroke="#9b59b6" stroke-width="2" opacity="0.6"/>
    </g>
    
    <!-- Team member 3 (bottom-right) -->
    <g transform="translate(60, 40)">
      <circle cx="0" cy="0" r="25" fill="#f39c12" opacity="0.8"/>
      <circle cx="0" cy="-5" r="15" fill="#ecf0f1" opacity="0.9"/>
      <rect x="-8" y="5" width="16" height="20" fill="#ecf0f1" opacity="0.9" rx="8"/>
      <line x1="0" y1="25" x2="0" y2="55" stroke="#9b59b6" stroke-width="2" opacity="0.6"/>
    </g>
    
    <!-- Team member 4 (bottom) -->
    <g transform="translate(0, 80)">
      <circle cx="0" cy="0" r="25" fill="#27ae60" opacity="0.8"/>
      <circle cx="0" cy="-5" r="15" fill="#ecf0f1" opacity="0.9"/>
      <rect x="-8" y="5" width="16" height="20" fill="#ecf0f1" opacity="0.9" rx="8"/>
      <line x1="0" y1="25" x2="0" y2="55" stroke="#9b59b6" stroke-width="2" opacity="0.6"/>
    </g>
    
    <!-- Team member 5 (bottom-left) -->
    <g transform="translate(-60, 40)">
      <circle cx="0" cy="0" r="25" fill="#34495e" opacity="0.8"/>
      <circle cx="0" cy="-5" r="15" fill="#ecf0f1" opacity="0.9"/>
      <rect x="-8" y="5" width="16" height="20" fill="#ecf0f1" opacity="0.9" rx="8"/>
      <line x1="0" y1="25" x2="0" y2="55" stroke="#9b59b6" stroke-width="2" opacity="0.6"/>
    </g>
    
    <!-- Team member 6 (top-left) -->
    <g transform="translate(-60, -40)">
      <circle cx="0" cy="0" r="25" fill="#e67e22" opacity="0.8"/>
      <circle cx="0" cy="-5" r="15" fill="#ecf0f1" opacity="0.9"/>
      <rect x="-8" y="5" width="16" height="20" fill="#ecf0f1" opacity="0.9" rx="8"/>
      <line x1="0" y1="25" x2="0" y2="55" stroke="#9b59b6" stroke-width="2" opacity="0.6"/>
    </g>
    
    <!-- Connection lines -->
    <line x1="0" y1="-60" x2="0" y2="-20" stroke="#9b59b6" stroke-width="2" opacity="0.4"/>
    <line x1="40" y1="-20" x2="20" y2="-20" stroke="#9b59b6" stroke-width="2" opacity="0.4"/>
    <line x1="40" y1="20" x2="20" y2="20" stroke="#9b59b6" stroke-width="2" opacity="0.4"/>
    <line x1="0" y1="60" x2="0" y2="20" stroke="#9b59b6" stroke-width="2" opacity="0.4"/>
    <line x1="-40" y1="20" x2="-20" y2="20" stroke="#9b59b6" stroke-width="2" opacity="0.4"/>
    <line x1="-40" y1="-20" x2="-20" y2="-20" stroke="#9b59b6" stroke-width="2" opacity="0.4"/>
  </g>
  
  <!-- Professional icons around the team -->
  <g transform="translate(50, 50)">
    <rect x="0" y="0" width="30" height="40" fill="#34495e" opacity="0.6" rx="5"/>
    <rect x="5" y="5" width="20" height="3" fill="#ecf0f1" opacity="0.8" rx="1"/>
    <rect x="5" y="10" width="15" height="3" fill="#ecf0f1" opacity="0.6" rx="1"/>
    <rect x="5" y="15" width="18" height="3" fill="#ecf0f1" opacity="0.6" rx="1"/>
  </g>
  
  <g transform="translate(320, 50)">
    <circle cx="15" cy="15" r="15" fill="#3498db" opacity="0.6"/>
    <path d="M10,10 L20,15 L10,20 Z" fill="#ecf0f1" opacity="0.9"/>
  </g>
  
  <g transform="translate(320, 220)">
    <rect x="0" y="0" width="30" height="30" fill="#e74c3c" opacity="0.6" rx="5"/>
    <circle cx="15" cy="15" r="8" fill="#ecf0f1" opacity="0.9"/>
    <line x1="15" y1="7" x2="15" y2="23" stroke="#e74c3c" stroke-width="2" opacity="0.8"/>
    <line x1="7" y1="15" x2="23" y2="15" stroke="#e74c3c" stroke-width="2" opacity="0.8"/>
  </g>
</svg>
